# xmcd CD database file
#
# Track frame offsets:
#	150
#	16748
#	32893
#	59685
#	75741
#	93372
#	116707
#	135242
#	150925
#	163244
#	178648
#	197578
#	218085
#
# Disc length: 3255 seconds
#
# Revision: 0
# Processed by: cddbd v1.5.2PL0 Copyright (c) Steve Scherf et al.
# Submitted via: CDex 1.51
#
DISCID=a30cb50d
DTITLE=Big Creek Slim - Keep My Belly Full
DYEAR=2016
DGENRE=Blues
TTITLE0=Bye Bye Blues
TTITLE1=You Don't Love Me
TTITLE2=Precious Memories
TTITLE3=Keep My Belly Full
TTITLE4=Woman Don't Lie
TTITLE5=Alright Baby
TTITLE6=Do Somebody Wrong
TTITLE7=Tell Me Baby
TTITLE8=Lonesome Day Blues
TTITLE9=Cockfight
TTITLE10=Sink 'EM Low
TTITLE11=Mrs. Headache
TTITLE12=Dry Spell Blues
EXTD=YEAR: 2016
EXTT0=
EXTT1=
EXTT2=
EXTT3=
EXTT4=
EXTT5=
EXTT6=
EXTT7=
EXTT8=
EXTT9=
EXTT10=
EXTT11=
EXTT12=
PLAYORDER=
